<?xml version="1.0" encoding="utf-8"?>
<!-- Generator: Adobe Illustrator 24.1.0, SVG Export Plug-In . SVG Version: 6.00 Build 0)  -->
<svg version="1.1" id="Layer_1" xmlns="http://www.w3.org/2000/svg" xmlns:xlink="http://www.w3.org/1999/xlink" x="0px" y="0px"
	 viewBox="0 0 24 24" style="enable-background:new 0 0 24 24;" xml:space="preserve">
<style type="text/css">
	.st0{fill:none;}
</style>
<path class="st0" d="M0,0h24v24H0V0z"/>
<path d="M5.5,12c0-1.4,1.1-2.5,2.5-2.5h3.2V8H8c-2.2,0-4,1.8-4,4s1.8,4,4,4h3.2v-1.5H8C6.6,14.5,5.5,13.4,5.5,12z M8.8,12.8h6.4
	v-1.6H8.8V12.8z M16,8h-3.2v1.5H16c1.4,0,2.5,1.1,2.5,2.5s-1.1,2.5-2.5,2.5h-3.2V16H16c2.2,0,4-1.8,4-4S18.2,8,16,8z"/>
</svg>
