<?xml version="1.0" encoding="utf-8"?>
<!-- Generator: Adobe Illustrator 24.1.0, SVG Export Plug-In . SVG Version: 6.00 Build 0)  -->
<svg version="1.1" id="Layer_1" xmlns="http://www.w3.org/2000/svg" xmlns:xlink="http://www.w3.org/1999/xlink" x="0px" y="0px"
	 viewBox="0 0 24 24" style="enable-background:new 0 0 24 24;" xml:space="preserve">
<style type="text/css">
	.st0{fill:none;}
</style>
<path d="M20,9.6V8h-1.6V6.4c0-0.9-0.7-1.6-1.6-1.6H5.6C4.7,4.8,4,5.5,4,6.4v11.2c0,0.9,0.7,1.6,1.6,1.6h11.2c0.9,0,1.6-0.7,1.6-1.6
	V16H20v-1.6h-1.6v-1.6H20v-1.6h-1.6V9.6H20z M16.8,17.6H5.6V6.4h11.2V17.6z M7.2,12.8h4V16h-4V12.8z M12,8h3.2v2.4H12V8z M7.2,8h4v4
	h-4V8z M12,11.2h3.2V16H12V11.2z"/>
<path class="st0" d="M0,0h24v24H0V0z M0,0h24v24H0V0z"/>
</svg>
