<?xml version="1.0" encoding="utf-8"?>
<!-- Generator: Adobe Illustrator 24.1.0, SVG Export Plug-In . SVG Version: 6.00 Build 0)  -->
<svg version="1.1" id="Layer_1" xmlns="http://www.w3.org/2000/svg" xmlns:xlink="http://www.w3.org/1999/xlink" x="0px" y="0px"
	 viewBox="0 0 24 24" style="enable-background:new 0 0 24 24;" xml:space="preserve">
<style type="text/css">
	.st0{fill:none;}
</style>
<g>
	<rect class="st0" width="24" height="24"/>
</g>
<g>
	<path d="M12,4.5c-0.4,0-0.8,0-1.2,0.1C8.5,5.1,6.6,6.9,6.2,9.3c-0.4,2.2,0.4,4.2,1.9,5.5c0.4,0.3,0.6,0.8,0.6,1.2V18
		c0,0.9,0.8,1.7,1.7,1.7h0.2c0.3,0.5,0.8,0.8,1.4,0.8c0.6,0,1.2-0.3,1.4-0.8h0.2c0.9,0,1.7-0.8,1.7-1.7V16c0-0.5,0.2-0.9,0.5-1.2
		c1.2-1.1,2-2.7,2-4.4C17.9,7.1,15.3,4.5,12,4.5z M13.7,18h-3.4v-0.8h3.4V18z M13.7,16.3h-3.4v-0.8h3.4V16.3z M12.4,11.6v2.2h-0.8
		v-2.2L10,10l0.6-0.6l1.4,1.4l1.4-1.4L14,10L12.4,11.6z"/>
</g>
</svg>
